<?xml version="1.0" standalone="no"?>
<!DOCTYPE svg PUBLIC "-//W3C//DTD SVG 20010904//EN"
 "http://www.w3.org/TR/2001/REC-SVG-20010904/DTD/svg10.dtd">
<svg version="1.0" xmlns="http://www.w3.org/2000/svg"
 width="700.000000pt" height="700.000000pt" viewBox="0 0 700.000000 700.000000"
 preserveAspectRatio="xMidYMid meet">
<metadata>
Created by potrace 1.14, written by Peter Selinger 2001-2017
</metadata>
<g transform="translate(0.000000,700.000000) scale(0.100000,-0.100000)"
fill="#000000" stroke="none">
<path d="M3278 6995 c-1 -1 -42 -5 -89 -9 -47 -4 -95 -8 -105 -10 -10 -2 -45
-7 -78 -11 -101 -12 -214 -35 -381 -76 -283 -71 -593 -197 -853 -346 -88 -50
-320 -199 -332 -212 -3 -3 -43 -35 -90 -71 -47 -35 -98 -76 -114 -90 -504
-437 -854 -957 -1060 -1572 -31 -94 -79 -267 -91 -329 -3 -13 -12 -58 -20 -99
-8 -41 -17 -89 -19 -105 -3 -17 -7 -46 -11 -66 -6 -40 -10 -74 -22 -199 -15
-162 -8 -591 12 -711 2 -13 6 -46 9 -74 47 -408 239 -953 466 -1318 30 -48 60
-95 65 -105 24 -42 133 -191 208 -285 163 -202 344 -382 557 -552 92 -74 370
-265 386 -265 4 0 15 -6 23 -14 9 -7 81 -47 161 -88 354 -181 736 -303 1109
-354 25 -3 57 -8 71 -10 163 -25 682 -25 842 1 13 2 46 7 73 10 71 10 87 13
115 18 14 3 43 8 65 12 22 4 76 16 120 27 44 10 87 21 96 23 35 8 168 48 239
72 558 189 1087 540 1480 982 36 41 70 79 76 85 29 30 185 242 240 326 120
184 241 412 315 597 66 163 147 422 175 558 16 75 54 300 60 350 4 33 9 76 11
95 8 71 10 517 3 595 -17 172 -22 220 -25 225 -2 3 -6 30 -10 60 -3 30 -10 71
-15 90 -5 19 -12 51 -15 70 -12 72 -65 269 -100 375 -106 315 -228 564 -411
840 -483 728 -1220 1250 -2059 1458 -77 19 -158 38 -180 43 -22 4 -42 8 -45 9
-3 0 -30 5 -60 9 -30 4 -64 10 -75 12 -11 2 -49 6 -85 10 -36 3 -78 8 -95 11
-33 5 -531 13 -537 8z m463 -219 c53 -4 104 -8 115 -10 10 -2 48 -7 84 -11 83
-9 289 -50 405 -80 620 -164 1192 -518 1614 -1000 53 -60 112 -130 131 -155
19 -25 38 -49 43 -55 132 -166 307 -477 411 -732 48 -117 135 -383 137 -418 0
-2 5 -19 10 -37 15 -51 56 -266 64 -338 5 -36 9 -76 11 -90 22 -159 21 -591
-1 -709 -1 -9 -6 -43 -9 -76 -20 -175 -92 -472 -166 -680 -32 -92 -119 -291
-168 -385 -169 -325 -352 -572 -616 -835 -282 -281 -630 -519 -976 -669 -36
-15 -78 -34 -95 -41 -16 -7 -48 -19 -70 -26 -22 -7 -44 -16 -50 -20 -26 -18
-354 -110 -460 -128 -33 -6 -70 -13 -81 -15 -35 -7 -135 -21 -214 -31 -181
-22 -590 -23 -720 0 -14 2 -47 6 -75 10 -70 7 -154 22 -265 46 -503 110 -974
337 -1380 667 -122 99 -358 333 -446 442 -212 262 -389 551 -495 810 -17 41
-36 89 -44 105 -7 17 -29 77 -48 135 -138 413 -190 818 -164 1274 4 71 9 132
11 135 2 3 7 34 10 68 32 310 149 697 309 1023 314 643 854 1182 1499 1498
314 154 696 270 1008 308 30 3 66 8 80 10 14 2 75 6 135 10 61 3 111 7 112 8
5 4 261 -2 354 -8z"/>
<path d="M3219 6566 c-2 -2 -33 -6 -69 -10 -83 -8 -164 -18 -167 -20 -3 -3 -8
-100 -28 -591 -4 -82 -8 -170 -10 -194 l-3 -43 31 5 c18 3 43 9 57 12 14 3 46
8 73 12 l47 6 1 41 c0 23 2 84 4 136 2 52 6 164 9 249 3 84 8 156 11 159 3 3
5 -1 5 -8 0 -7 17 -49 38 -94 21 -45 65 -141 97 -214 l60 -132 89 2 88 3 43
96 c53 121 91 205 132 288 l32 66 1 -85 c3 -235 14 -496 21 -493 2 1 48 -7
102 -16 l98 -18 -6 166 c-4 91 -8 195 -10 231 -3 36 -7 136 -10 222 -4 87 -8
166 -10 175 -2 10 -4 21 -4 24 -1 8 -82 19 -192 25 l-86 6 -15 -34 c-8 -18
-52 -126 -98 -240 -71 -179 -100 -237 -100 -199 0 6 -41 114 -91 240 -81 204
-94 231 -114 231 -12 0 -24 -2 -26 -4z"/>
<path d="M5167 5932 c-38 -59 -135 -210 -216 -337 l-147 -230 55 -40 c31 -21
70 -52 86 -67 17 -15 36 -28 42 -28 13 0 401 196 418 211 29 27 20 -2 -28 -93
-30 -57 -82 -155 -115 -218 l-60 -115 73 -92 73 -92 63 38 c95 56 603 372 612
380 7 7 -35 69 -94 138 l-27 31 -223 -148 c-123 -82 -225 -147 -227 -145 -4 3
184 371 201 393 6 8 5 18 -4 30 -26 33 -124 122 -134 122 -6 0 -99 -45 -207
-100 -108 -55 -199 -100 -202 -100 -5 0 95 151 231 347 34 50 63 95 63 100 0
7 -67 57 -139 105 l-26 17 -68 -107z"/>
<path d="M1517 5856 c-66 -24 -105 -58 -261 -227 -75 -82 -259 -306 -275 -337
-9 -18 1 -31 86 -109 54 -48 129 -117 168 -153 39 -36 118 -108 175 -160 58
-52 117 -107 132 -121 l26 -26 24 27 c29 33 343 385 379 425 105 115 124 154
124 252 0 63 -3 76 -30 114 -54 77 -164 112 -249 79 -23 -9 -24 -8 -25 46 -1
146 -135 239 -274 190z m120 -188 c42 -39 22 -99 -63 -188 -18 -19 -41 -44
-51 -56 -10 -12 -54 -61 -98 -109 -44 -48 -83 -92 -86 -98 -8 -12 -49 16 -97
66 l-33 34 37 44 c262 315 328 367 391 307z m276 -228 c9 -33 -11 -85 -48
-125 -19 -21 -62 -70 -97 -109 -89 -100 -192 -211 -198 -214 -4 -1 -32 21 -64
50 l-57 53 37 40 c59 65 113 124 213 233 101 110 134 130 182 106 15 -7 29
-22 32 -34z"/>
<path d="M3428 5575 c-2 -1 -43 -5 -93 -9 -49 -3 -101 -7 -115 -10 -14 -2 -47
-7 -75 -11 -27 -4 -101 -20 -164 -37 -633 -163 -1154 -618 -1405 -1229 -56
-137 -114 -350 -130 -481 -3 -27 -9 -69 -12 -95 -9 -65 -9 -302 -1 -388 8 -75
10 -91 33 -225 14 -78 69 -261 109 -361 76 -189 178 -363 306 -524 60 -77 211
-232 274 -285 81 -67 128 -101 220 -161 728 -473 1677 -440 2370 82 147 110
295 255 392 384 100 131 156 221 226 361 92 185 162 412 193 634 16 110 22
406 10 475 -2 17 -8 55 -11 85 -3 30 -8 62 -11 71 -3 10 -6 30 -8 45 -18 138
-113 406 -203 574 -108 201 -205 332 -368 495 -106 105 -128 125 -227 198
-356 263 -744 395 -1205 411 -57 2 -104 2 -105 1z m277 -131 c39 -3 79 -8 90
-9 52 -9 110 -17 110 -15 0 1 13 -3 28 -9 15 -6 40 -13 56 -16 127 -22 395
-139 561 -243 221 -140 461 -380 602 -602 182 -287 288 -627 302 -965 l4 -85
-979 0 -979 0 0 -980 0 -980 -92 5 c-51 3 -106 7 -123 10 -16 2 -52 7 -80 10
-27 4 -95 18 -150 30 -691 160 -1242 687 -1439 1375 -13 47 -27 103 -30 125
-4 22 -8 47 -11 55 -11 39 -25 161 -30 263 l-4 87 980 0 979 0 0 323 c0 177 0
615 0 973 0 358 2 653 6 656 6 6 84 3 199 -8z"/>
</g>
</svg>
