<?xml version="1.0" encoding="utf-8"?><svg viewBox="0 0 152 60" xmlns="http://www.w3.org/2000/svg" xmlns:xlink="http://www.w3.org/1999/xlink"><style>:root>svg{display:none}:root>svg:target{display:block}</style><svg viewBox="0 0 60 60" id="bmw" xmlns="http://www.w3.org/2000/svg"><g opacity=".9" clip-path="url(#aclip0_7_18)"><path clip-rule="evenodd" d="M30 1.844C14.45 1.844 1.844 14.45 1.844 30 1.844 45.55 14.45 58.156 30 58.156c15.55 0 28.156-12.606 28.156-28.156C58.156 14.45 45.55 1.844 30 1.844zM0 30C0 13.43 13.431 0 30 0 46.569 0 60 13.43 60 30c0 16.569-13.431 30-30 30C13.431 60 0 46.569 0 30z"/><path d="M12.22 30.002c0-9.82 7.96-17.78 17.781-17.78 9.82 0 17.78 7.96 17.78 17.78S39.82 47.782 30 47.782s-17.78-7.96-17.78-17.78zm5.918-11.862a16.722 16.722 0 00-4.914 11.862c0 4.634 1.877 8.825 4.914 11.863A16.724 16.724 0 0030 46.778c4.634 0 8.825-1.877 11.862-4.913a16.722 16.722 0 004.914-11.863c0-4.634-1.877-8.825-4.914-11.862a16.722 16.722 0 00-11.862-4.914 16.722 16.722 0 00-11.863 4.914z"/><path d="M12.228 30.001H30.01v-17.78h-.002c-9.82.001-17.78 7.96-17.78 17.78z"/><path d="M47.777 29.992H29.995v17.791h.002c9.82 0 17.78-7.971 17.78-17.79zM50.603 13.56l-3.962 2.621 1.875-3.647c-.487-.576-1.225-1.181-1.225-1.181l-3.618 1.816 2.655-3.892c-.441-.37-.95-.678-1.44-1.049l-3.715 5.795s.703.414 1.564 1.209l3.845-1.99-2.014 3.785c.453.478.856 1.058 1.276 1.575l5.852-3.62s-.358-.562-1.093-1.422zm-20.19-3.951l1.782-3.94.162 4.994c.718.032 1.777.303 1.777.303l-.32-7.075a28.638 28.638 0 00-2.417-.249l-1.718 4.274L28 3.676s-1.108.109-2.452.304l-.322 7.129s1.061-.307 1.78-.339l.15-5.071 1.788 3.91h1.467zm-15.09 2.316v-.007a1.785 1.785 0 00-.524-1.79c-.723-.66-1.8-.683-2.95.465 0 0-2.12 2.125-3.556 4.207l5.157 4.702 3.886-4.357c.846-.934.879-2.256.105-2.962-.578-.527-1.416-.602-2.119-.258zm-4.975 2.527c1.827-2.262 2.558-2.881 2.558-2.881.48-.414.833-.45 1.121-.189.288.262.251.771-.08 1.137l-2.582 2.86-1.017-.926zm5.805-.19l-2.711 3.01-1.02-.928 2.712-3.01c.332-.367.83-.456 1.11-.2.282.257.241.762-.09 1.128z"/></g><defs><clipPath id="aclip0_7_18"><path d="M0 0h60v60H0z"/></clipPath></defs></svg><svg viewBox="0 0 44 44" id="fb" xmlns="http://www.w3.org/2000/svg"><path d="M16.466 22.763h2.566v10.562c0 .208.169.377.377.377h4.35a.377.377 0 00.378-.377V22.813h2.949a.378.378 0 00.375-.335l.448-3.888a.378.378 0 00-.375-.42h-3.397v-2.438c0-.735.395-1.107 1.176-1.107h2.22a.377.377 0 00.378-.378v-3.569a.377.377 0 00-.377-.377h-3.061a3.142 3.142 0 00-.14-.003c-.532 0-2.378.104-3.836 1.446-1.616 1.486-1.391 3.267-1.337 3.575v2.85h-2.694a.377.377 0 00-.377.378v3.838c0 .209.169.378.377.378z"/></svg><svg viewBox="0 0 16 16.003" id="inst" xmlns="http://www.w3.org/2000/svg"><g><path d="M15.96 4.7a5.848 5.848 0 00-.372-1.941A4.1 4.1 0 0013.246.422 5.863 5.863 0 0011.305.05C10.451.009 10.176 0 8.003 0s-2.445.009-3.3.047a5.849 5.849 0 00-1.939.372 3.9 3.9 0 00-1.419.925A3.94 3.94 0 00.422 2.76 5.863 5.863 0 00.051 4.7C.01 5.558 0 5.83 0 8s.01 2.448.051 3.3a5.847 5.847 0 00.372 1.941 4.1 4.1 0 002.338 2.343 5.863 5.863 0 001.941.372C5.551 15.994 5.828 16 8 16s2.445-.009 3.3-.047a5.846 5.846 0 001.941-.372 4.093 4.093 0 002.342-2.341 5.867 5.867 0 00.368-1.94c.037-.853.047-1.125.047-3.3s-.001-2.442-.038-3.3zm-1.441 6.534a4.386 4.386 0 01-.275 1.485 2.655 2.655 0 01-1.519 1.519 4.4 4.4 0 01-1.485.275c-.844.038-1.1.047-3.232.047s-2.392-.009-3.233-.047a4.384 4.384 0 01-1.485-.275 2.463 2.463 0 01-.919-.6 2.488 2.488 0 01-.6-.919 4.4 4.4 0 01-.275-1.485c-.038-.844-.047-1.1-.047-3.233s.009-2.392.047-3.232a4.384 4.384 0 01.275-1.485 2.432 2.432 0 01.6-.919 2.484 2.484 0 01.919-.6A4.4 4.4 0 014.777 1.5c.844-.037 1.1-.047 3.232-.047s2.392.009 3.233.047a4.386 4.386 0 011.485.275 2.461 2.461 0 01.919.6 2.487 2.487 0 01.6.919 4.4 4.4 0 01.275 1.485c.037.844.047 1.1.047 3.232s-.017 2.384-.05 3.228zm0 0"/><path d="M8.003 3.892a4.111 4.111 0 104.111 4.111 4.112 4.112 0 00-4.111-4.111zm0 6.778a2.667 2.667 0 112.667-2.667 2.667 2.667 0 01-2.667 2.667zm0 0"/><path d="M13.237 3.729a.96.96 0 11-.96-.96.96.96 0 01.96.96zm0 0"/></g></svg><svg viewBox="0 0 39 37" id="like" xmlns="http://www.w3.org/2000/svg"><path d="M0 18.243h7.21v17.305H0V18.243zm35.454-4.687H25.237l.122-4.038 1.082-5.191L24.876 0h-3.482l-.722 6.367-3.605 5.53-1.32 7.088H12.02v16.563l8.775.505H31.07l3.785-2.704L38.1 19.721l-2.646-6.165z"/></svg><svg viewBox="0 0 44 44" id="ok" xmlns="http://www.w3.org/2000/svg"><path d="M20.526 28.123c-2.323-.243-4.417-.815-6.21-2.217-.222-.174-.452-.342-.655-.537-.784-.754-.864-1.617-.242-2.506.53-.762 1.422-.965 2.35-.528.179.084.35.19.513.304 3.342 2.296 7.931 2.359 11.285.103.332-.255.688-.463 1.1-.569.8-.205 1.546.089 1.976.79.49.799.484 1.58-.12 2.2-.928.953-2.043 1.641-3.283 2.122-1.172.454-2.455.683-3.726.835.192.208.283.311.402.431 1.725 1.734 3.458 3.46 5.177 5.198.586.593.708 1.327.386 2.016-.353.753-1.142 1.248-1.916 1.195-.49-.034-.873-.278-1.213-.62-1.302-1.31-2.628-2.596-3.903-3.93-.371-.388-.55-.315-.877.022a260.71 260.71 0 01-3.98 3.996c-.601.592-1.316.699-2.014.36-.74-.359-1.212-1.115-1.176-1.875.025-.515.278-.907.631-1.26 1.707-1.704 3.41-3.413 5.113-5.121.112-.114.218-.234.382-.41z"/><path d="M21.94 22.185c-4.143-.014-7.54-3.449-7.516-7.599.024-4.195 3.423-7.576 7.607-7.565 4.193.012 7.558 3.441 7.537 7.68-.022 4.142-3.443 7.498-7.628 7.484zm3.766-7.589A3.693 3.693 0 0022 10.894a3.698 3.698 0 00-3.713 3.747 3.693 3.693 0 003.732 3.674 3.685 3.685 0 003.686-3.719z"/></svg><svg viewBox="0 0 152 32" id="slider-btn-arrow" xmlns="http://www.w3.org/2000/svg"><path d="M0 16h150"/><path d="M135 1l15 15-15 15"/><defs><linearGradient id="fpaint0_linear_14_595" x1="0" y1="16.5" x2="150" y2="16.517" gradientUnits="userSpaceOnUse"><stop stop-color="#999" stop-opacity="0"/><stop offset="1" stop-color="#727272"/></linearGradient></defs></svg><svg viewBox="0 0 44 44" id="vk" xmlns="http://www.w3.org/2000/svg"><path d="M34.952 15.12c.19-.621 0-1.077-.897-1.077h-2.971c-.756 0-1.102.394-1.291.827 0 0-1.51 3.636-3.651 5.993-.691.686-1.007.903-1.384.903-.188 0-.462-.217-.462-.838V15.12c0-.746-.218-1.077-.848-1.077h-4.669c-.471 0-.756.345-.756.674 0 .705 1.07.869 1.18 2.858v4.317c0 .945-.172 1.117-.551 1.117-1.007 0-3.456-3.649-4.91-7.826-.283-.812-.57-1.14-1.328-1.14h-2.97c-.85 0-1.018.395-1.018.829 0 .778 1.006 4.629 4.689 9.722 2.455 3.478 5.91 5.363 9.06 5.363 1.887 0 2.12-.418 2.12-1.14v-2.629c0-.837.18-1.006.777-1.006.44 0 1.195.22 2.958 1.895 2.013 1.987 2.347 2.88 3.478 2.88h2.97c.848 0 1.272-.42 1.028-1.246-.267-.822-1.229-2.019-2.505-3.435-.694-.808-1.73-1.677-2.046-2.111-.44-.56-.313-.808 0-1.305.002 0 3.62-5.03 3.997-6.74z"/></svg></svg>