<svg width="1920" height="1080" viewBox="0 0 1920 1080" fill="none" xmlns="http://www.w3.org/2000/svg">
<g clip-path="url(#clip0_2_124)">
<rect width="1920" height="1080" fill="#CFCFCF"/>
<path opacity="0.4" d="M1006 605C1003.89 608.021 1005 621.167 1004.5 629V653C1004.5 663.8 1023.5 666.167 1033 666C1082.17 663.167 1182.8 655 1194 653C1208 650.5 1242.57 602.324 1235 596.5C1215.5 581.5 1048 593 1033 594C1018 595 1009.5 600 1006 605Z" stroke="#BBBBBB" stroke-width="3"/>
<path opacity="0.4" d="M942.571 605C944.685 608.021 943.571 621.167 944.071 629V653C944.071 663.8 925.071 666.167 915.571 666C866.404 663.167 765.771 655 754.571 653C740.571 650.5 705.999 602.324 713.571 596.5C733.071 581.5 900.571 593 915.571 594C930.571 595 939.071 600 942.571 605Z" stroke="#BBBBBB" stroke-width="3"/>
<path opacity="0.4" d="M676 593.5L655.936 616.955C646.455 628.039 631.582 632.905 617.383 629.57L526.252 608.166C510.691 604.511 499.404 591.034 498.537 575.073L497.5 556" stroke="#C0C0C0" stroke-width="8"/>
<path opacity="0.4" d="M1272 593.5L1292.06 616.955C1301.54 628.039 1316.42 632.905 1330.62 629.57L1421.75 608.166C1437.31 604.511 1448.6 591.034 1449.46 575.073L1450.5 556" stroke="#C0C0C0" stroke-width="8"/>
<path d="M825.168 445.528H791.376L790.056 456.088H817.512L814.872 477.208H787.416L786.096 487.768H819.888L817.116 511H757.98L768.804 422.296H827.94L825.168 445.528ZM883.109 481.168L901.325 511H871.757L856.709 483.544H851.825L848.525 511H823.181L834.005 422.296H874.133C885.309 422.296 893.405 424.98 898.421 430.348C903.525 435.716 905.505 442.888 904.361 451.864C903.569 458.464 901.281 464.404 897.497 469.684C893.713 474.964 888.917 478.792 883.109 481.168ZM866.873 462.424C870.041 462.424 872.725 461.632 874.925 460.048C877.213 458.464 878.533 456.088 878.885 452.92C879.237 449.84 878.489 447.508 876.641 445.924C874.881 444.252 872.417 443.416 869.249 443.416H856.841L854.465 462.424H866.873ZM964.165 481.168L982.381 511H952.813L937.765 483.544H932.881L929.581 511H904.237L915.061 422.296H955.189C966.365 422.296 974.461 424.98 979.477 430.348C984.581 435.716 986.561 442.888 985.417 451.864C984.625 458.464 982.337 464.404 978.553 469.684C974.769 474.964 969.973 478.792 964.165 481.168ZM947.929 462.424C951.097 462.424 953.781 461.632 955.981 460.048C958.269 458.464 959.589 456.088 959.941 452.92C960.293 449.84 959.545 447.508 957.697 445.924C955.937 444.252 953.473 443.416 950.305 443.416H937.897L935.521 462.424H947.929ZM1001.47 433.78C1012.12 424.716 1024.13 420.184 1037.51 420.184C1050.89 420.184 1061.75 424.76 1070.11 433.912C1078.56 442.976 1081.99 453.888 1080.41 466.648C1078.83 479.496 1072.71 490.452 1062.06 499.516C1051.5 508.58 1039.53 513.112 1026.16 513.112C1012.78 513.112 1001.87 508.58 993.423 499.516C985.063 490.364 981.675 479.408 983.259 466.648C984.843 453.8 990.915 442.844 1001.47 433.78ZM1013.35 483.148C1017.31 487.636 1022.51 489.88 1028.93 489.88C1035.35 489.88 1041.12 487.636 1046.22 483.148C1051.33 478.572 1054.27 473.072 1055.07 466.648C1055.86 460.224 1054.27 454.768 1050.31 450.28C1046.35 445.704 1041.16 443.416 1034.74 443.416C1028.31 443.416 1022.55 445.704 1017.45 450.28C1012.34 454.768 1009.39 460.224 1008.6 466.648C1007.81 473.072 1009.39 478.572 1013.35 483.148ZM1137.88 481.168L1156.1 511H1126.53L1111.48 483.544H1106.6L1103.3 511H1077.95L1088.78 422.296H1128.9C1140.08 422.296 1148.18 424.98 1153.19 430.348C1158.3 435.716 1160.28 442.888 1159.13 451.864C1158.34 458.464 1156.05 464.404 1152.27 469.684C1148.48 474.964 1143.69 478.792 1137.88 481.168ZM1121.64 462.424C1124.81 462.424 1127.5 461.632 1129.7 460.048C1131.98 458.464 1133.3 456.088 1133.66 452.92C1134.01 449.84 1133.26 447.508 1131.41 445.924C1129.65 444.252 1127.19 443.416 1124.02 443.416H1111.61L1109.24 462.424H1121.64Z" fill="#BEBEBE"/>
</g>
<defs>
<clipPath id="clip0_2_124">
<rect width="1920" height="1080" fill="white"/>
</clipPath>
</defs>
</svg>
